<?xml version="1.0" encoding="utf-8"?>
<svg version="1.1" xmlns="http://www.w3.org/2000/svg" xmlns:xlink="http://www.w3.org/1999/xlink"
   viewBox="61.89 106.29 368.35 383.45" xml:space="preserve">
<style type="text/css">
  .st2{fill:currentColor;}
</style>
<path class="st2" d="M284,379.81l-4.86,13.95L168.78,117.01h-32.23l36.2,90.7L69.89,470.51l32.23-0.47l44.59-115.82l83.44,0.47
  l50.33,114.42l19.87-49.77L284,379.81z M161.06,320.97l28.36-71.05l27.7,71.05H161.06z"/>
<path class="st2" d="M208.13,204.98l4.86-13.95l110.36,276.76h32.23l-36.2-90.7l102.86-262.8l-32.23,0.47l-44.59,115.82l-83.44-0.47
  l-50.33-114.42l-19.87,49.77L208.13,204.98z M331.07,263.82l-28.36,71.05l-27.7-71.05H331.07z"/>
</svg>
