<?xml version="1.0" encoding="utf-8"?>
<!-- Generator: Adobe Illustrator 24.2.1, SVG Export Plug-In . SVG Version: 6.00 Build 0)  -->
<svg version="1.1" id="Layer_1" xmlns="http://www.w3.org/2000/svg" xmlns:xlink="http://www.w3.org/1999/xlink" x="0px" y="0px"
	 viewBox="0 0 520.72 537.55" style="enable-background:new 0 0 520.72 537.55;" xml:space="preserve">
<style type="text/css">
	.st0{display:none;}
	.st1{display:inline;}
	.st2{fill:#1C978C;}
</style>
<g class="st0">
	<path class="st1" d="M244.69,307.57l-6.26-15.27l-10.78-26.31l-5.09-12.4l-17.05-41.62h-2.76l-7.24,17.44l6.34,15.24l2.24-5.39
		l5.93,14.33l5.13,12.4l8.18,19.76h-38.58l10.79-25.93l-6.33-15.24l-39.77,95.83h12.58l17.58-42.26h48.61l3.93,9.35l6.36,15.16
		l7.46,17.75h12.18L244.69,307.57z"/>
</g>
<g class="st0">
	<path class="st1" d="M271.94,211.33l-17.75,42.26h-48.62l-3.72-8.94l-6.31,15.17l10.76,25.93l5.15,12.4l17.28,41.63h2.76
		l7.01-17.12l6.19-15.09l39.43-96.24H271.94z M238.43,292.3l-6.29,15.2l-2.07,4.99l-5.96-14.34l-5.16-12.4l-8.22-19.76h38.58
		L238.43,292.3z M175.41,211.33l13.8,33.25l6.3-15.17l-7.52-18.08H175.41z"/>
	<polygon class="st1" points="201.85,244.65 195.54,259.82 189.21,244.58 195.51,229.41 	"/>
</g>
<path class="st2" d="M284,379.81l-4.86,13.95L168.78,117.01h-32.23l36.2,90.7L69.89,470.51l32.23-0.47l44.59-115.82l83.44,0.47
	l50.33,114.42l19.87-49.77L284,379.81z M161.06,320.97l28.36-71.05l27.7,71.05H161.06z"/>
<path class="st2" d="M208.13,204.98l4.86-13.95l110.36,276.76h32.23l-36.2-90.7l102.86-262.8l-32.23,0.47l-44.59,115.82l-83.44-0.47
	l-50.33-114.42l-19.87,49.77L208.13,204.98z M331.07,263.82l-28.36,71.05l-27.7-71.05H331.07z"/>
</svg>
